<?xml version="1.0" standalone="no"?>
<!DOCTYPE svg PUBLIC "-//W3C//DTD SVG 20010904//EN"
 "http://www.w3.org/TR/2001/REC-SVG-20010904/DTD/svg10.dtd">
<svg version="1.0" xmlns="http://www.w3.org/2000/svg"
 width="820.000000pt" height="820.000000pt" viewBox="0 0 820.000000 820.000000"
 preserveAspectRatio="xMidYMid meet">
<metadata>
Created by potrace 1.14, written by Peter Selinger 2001-2017
</metadata>
<g transform="translate(0.000000,820.000000) scale(0.100000,-0.100000)"
fill="#000000" stroke="none">
<path d="M5815 6699 c-22 -4 -49 -9 -60 -12 -71 -18 -112 -29 -125 -34 -8 -3
-24 -8 -35 -10 -11 -2 -27 -6 -35 -10 -8 -3 -19 -7 -25 -8 -5 -2 -46 -13 -90
-25 -44 -12 -84 -23 -90 -25 -5 -1 -17 -4 -25 -8 -80 -29 -107 -33 -156 -20
-27 7 -58 15 -69 17 -11 3 -54 12 -95 21 -111 24 -122 27 -155 30 -16 2 -46 6
-65 9 -53 9 -132 18 -162 20 -16 0 -28 3 -28 6 0 19 -615 16 -785 -4 -51 -6
-137 -18 -154 -21 -9 -1 -36 -6 -61 -10 -25 -4 -53 -9 -62 -11 -10 -2 -28 -6
-40 -9 -13 -3 -39 -8 -58 -12 -45 -9 -38 -7 -90 -22 -25 -7 -49 -14 -55 -15
-33 -8 -103 -28 -120 -36 -23 -10 -56 -20 -68 -20 -4 0 -21 -7 -37 -15 -17 -9
-30 -12 -30 -9 0 4 -9 -1 -20 -11 -11 -10 -20 -15 -20 -10 0 4 -7 2 -15 -5 -8
-7 -15 -9 -15 -5 0 4 -6 3 -12 -2 -7 -5 -39 -20 -70 -33 -32 -12 -58 -27 -58
-33 0 -6 -3 -7 -7 -4 -6 6 -244 -114 -263 -133 -7 -7 -43 -29 -60 -37 -8 -4
-17 -9 -20 -12 -3 -3 -25 -20 -50 -36 -25 -17 -49 -33 -55 -38 -5 -4 -32 -24
-60 -45 -27 -20 -55 -41 -62 -47 -6 -5 -38 -32 -70 -60 -76 -65 -266 -255
-323 -324 -25 -29 -60 -70 -77 -90 -18 -20 -33 -42 -33 -48 0 -7 -4 -13 -9
-13 -5 0 -19 -16 -31 -35 -12 -20 -27 -41 -34 -48 -15 -16 -165 -249 -197
-305 l-24 -44 -53 59 c-83 91 -92 120 -43 131 22 5 100 92 118 133 9 21 20 39
23 39 4 0 7 6 8 13 0 6 7 37 15 67 42 164 -52 256 -197 192 -58 -26 -104 -74
-140 -148 -33 -68 -41 -100 -41 -175 l0 -56 -35 4 c-39 4 -51 7 -132 27 -31 7
-62 18 -70 22 -7 5 -17 9 -23 9 -5 1 -17 4 -25 7 -46 19 -143 48 -160 48 -11
0 -29 -9 -41 -21 -32 -32 -11 -94 37 -103 10 -2 82 -25 158 -51 146 -48 196
-59 283 -60 50 0 53 -1 81 -45 34 -51 128 -161 148 -173 33 -19 35 -45 13
-134 -26 -111 -29 -123 -33 -148 -13 -82 -17 -107 -22 -146 -20 -168 -20 -447
0 -559 3 -14 7 -46 11 -72 3 -26 10 -69 16 -95 5 -26 12 -64 15 -83 4 -19 10
-37 15 -38 5 -2 7 -7 5 -11 -3 -4 2 -30 10 -57 9 -27 17 -53 18 -59 4 -13 12
-35 49 -130 18 -44 32 -82 33 -85 12 -38 18 -50 27 -50 6 0 8 -2 5 -6 -3 -3
12 -37 34 -77 21 -40 42 -80 45 -89 3 -10 9 -18 14 -18 5 0 9 -6 9 -14 0 -7 7
-19 15 -26 8 -7 13 -16 10 -20 -3 -5 -1 -10 3 -12 5 -1 31 -36 57 -75 26 -40
52 -73 57 -73 5 0 7 -4 4 -9 -4 -5 -3 -11 1 -13 5 -1 33 -32 63 -68 30 -36 59
-68 65 -72 5 -4 7 -8 3 -8 -9 0 154 -161 216 -213 27 -23 56 -50 65 -60 8 -9
19 -17 23 -17 7 0 48 -33 84 -67 7 -7 17 -13 22 -13 13 0 35 -28 39 -49 2 -9
3 -83 2 -166 -2 -368 -1 -384 23 -429 20 -37 63 -86 76 -86 6 0 12 -4 12 -9 0
-4 30 -22 68 -39 64 -29 88 -38 129 -47 10 -3 36 -9 58 -14 22 -5 67 -13 100
-17 33 -3 63 -11 67 -18 6 -8 8 -8 8 0 0 7 11 9 28 7 44 -7 514 -13 524 -7 5
3 33 7 61 9 68 4 141 16 147 24 3 3 14 6 25 5 11 0 25 2 30 5 6 3 12 6 15 7 3
0 13 4 23 7 9 4 25 10 35 14 9 3 20 5 25 5 4 -1 7 3 7 8 0 5 3 9 8 8 10 -2 44
13 59 26 7 6 27 22 44 36 38 30 67 61 71 75 1 6 6 15 10 20 5 6 14 18 21 28
11 16 28 18 118 19 l104 1 72 -69 c98 -96 258 -174 404 -198 19 -3 45 -8 59
-11 85 -18 459 -29 498 -14 17 7 21 6 16 -3 -4 -6 -3 -8 3 -5 5 3 32 9 59 12
86 11 209 37 222 47 6 6 12 7 12 3 0 -4 7 -2 15 5 8 7 15 10 15 7 0 -4 36 12
80 34 44 23 78 45 74 50 -3 5 1 9 8 9 15 0 58 51 83 100 24 46 27 76 27 295 0
179 6 223 29 209 5 -3 9 -1 9 4 0 5 29 29 65 52 36 23 65 46 65 51 0 4 8 10
18 13 9 3 31 18 47 32 17 14 52 44 80 67 27 23 77 68 109 100 33 31 61 57 63
57 3 0 21 19 41 42 45 50 66 74 112 124 19 22 55 65 79 97 24 31 48 57 54 57
6 0 8 3 4 6 -6 7 51 96 65 102 4 2 8 8 8 14 0 5 15 30 32 56 18 26 33 53 35
61 1 8 5 17 10 20 4 3 30 49 57 103 42 84 52 97 77 100 16 3 29 1 29 -4 0 -5
6 -6 13 -1 13 8 18 9 82 18 22 3 56 9 75 13 19 5 38 9 43 10 4 1 8 2 10 3 1 0
9 2 17 4 8 2 44 12 79 24 36 11 69 17 74 14 6 -3 7 -2 4 3 -3 6 9 16 26 23 67
27 103 50 124 80 18 27 21 41 17 109 -4 69 -10 127 -14 127 0 0 -3 25 -5 55
-3 30 -7 73 -9 95 -3 22 -7 67 -11 100 -3 33 -8 71 -10 85 -2 14 -6 54 -10 90
-4 36 -8 76 -11 90 -2 14 -6 53 -9 85 -3 33 -7 76 -10 95 -3 19 -7 64 -10 100
-3 36 -8 79 -11 95 -3 17 -7 47 -9 69 -8 70 -25 94 -91 126 -33 17 -64 30 -68
30 -4 0 -26 8 -49 19 -23 10 -73 31 -112 45 -38 15 -86 35 -105 44 -19 9 -40
17 -47 18 -6 1 -18 6 -27 11 -16 9 -156 228 -156 244 0 5 -4 9 -8 9 -5 0 -18
18 -31 40 -12 22 -28 45 -34 52 -7 7 -24 31 -37 53 -13 22 -32 49 -42 59 -10
11 -18 26 -18 33 0 7 -4 13 -9 13 -5 0 -19 15 -30 33 -11 17 -31 44 -44 59
-13 15 -32 39 -43 53 -33 46 -182 205 -191 205 -3 0 -21 14 -40 30 -18 17 -38
30 -42 30 -5 0 -5 17 -1 38 8 34 17 84 25 137 5 33 15 83 22 118 7 33 9 165 2
205 -2 12 -8 22 -13 22 -5 0 -7 3 -3 6 8 8 -40 84 -72 112 -78 69 -216 97
-356 71z m174 -244 c26 -8 40 -58 30 -105 -4 -19 -10 -53 -14 -75 -7 -45 -13
-70 -15 -70 -1 0 -3 -12 -5 -26 -5 -40 -14 -91 -20 -119 -25 -107 -25 -170 -3
-199 18 -24 78 -66 78 -55 0 3 20 -9 45 -26 51 -35 100 -83 166 -161 24 -28
49 -57 54 -63 13 -13 104 -134 125 -166 8 -12 21 -28 28 -36 6 -7 12 -17 12
-23 0 -6 5 -11 10 -11 6 0 10 -5 10 -11 0 -6 11 -24 25 -41 14 -16 25 -35 25
-43 0 -7 7 -15 15 -19 8 -3 15 -12 15 -21 0 -8 9 -24 19 -34 10 -10 25 -31 32
-45 40 -75 116 -194 136 -212 13 -11 40 -26 61 -33 40 -15 72 -28 144 -60 26
-11 51 -21 54 -21 3 0 20 -6 37 -14 28 -12 62 -26 77 -31 27 -9 59 -25 63 -32
3 -4 8 -37 11 -73 10 -103 16 -152 21 -190 3 -19 7 -57 10 -85 10 -116 16
-171 20 -185 5 -19 18 -152 19 -202 1 -21 3 -38 6 -38 6 0 8 -16 15 -117 1
-28 6 -56 9 -62 4 -5 -7 -19 -24 -31 -16 -12 -30 -19 -30 -15 0 3 -6 3 -12 -2
-7 -4 -19 -9 -25 -10 -24 -6 -48 -11 -53 -13 -3 -1 -8 -2 -12 -1 -4 0 -18 -3
-30 -8 -33 -13 -114 -23 -263 -36 -22 -1 -45 -3 -51 -4 -30 -3 -103 -99 -87
-115 4 -3 1 -6 -5 -6 -7 0 -12 -4 -12 -9 0 -5 -5 -22 -12 -38 -6 -15 -11 -31
-10 -35 1 -5 -2 -8 -6 -8 -4 0 -19 -25 -32 -55 -13 -30 -28 -55 -32 -55 -4 0
-8 -5 -8 -12 0 -23 -155 -248 -226 -328 -158 -178 -270 -285 -424 -404 -47
-36 -89 -69 -95 -73 -5 -5 -41 -28 -80 -53 -74 -47 -114 -85 -116 -110 -1 -8
-2 -118 -3 -245 -2 -126 -6 -238 -10 -247 -12 -26 -100 -72 -161 -84 -64 -12
-141 -25 -190 -30 -33 -3 -62 -7 -64 -9 -1 -2 -14 0 -27 5 -13 5 -24 6 -24 2
0 -10 -144 -7 -160 3 -9 6 -11 4 -5 -5 5 -7 4 -11 -1 -8 -5 3 -43 9 -84 12
-41 4 -82 8 -90 11 -8 2 -31 6 -50 9 -51 6 -158 43 -210 73 -54 31 -96 63 -84
63 5 0 4 4 -2 8 -6 4 -21 26 -33 49 -38 76 -44 78 -306 79 -126 0 -243 -3
-258 -7 -29 -8 -66 -45 -67 -66 0 -7 -4 -13 -10 -13 -5 0 -8 -10 -6 -22 14
-92 -118 -162 -349 -185 -96 -10 -280 -9 -287 2 -5 7 -8 7 -8 0 0 -18 -287 1
-395 26 -22 5 -49 12 -60 14 -33 8 -79 27 -95 41 -13 11 -15 57 -14 308 l1
296 -26 40 c-14 22 -31 40 -37 40 -6 0 -23 11 -38 25 -15 14 -30 25 -33 25 -6
0 -150 118 -207 169 -105 96 -242 243 -293 315 -12 17 -26 36 -31 41 -24 29
-92 135 -92 144 0 5 -8 15 -17 20 -10 6 -15 11 -10 11 4 0 -3 17 -16 38 -42
66 -142 293 -153 345 -1 4 -3 9 -4 12 -1 3 -3 8 -5 13 -1 4 -5 19 -9 33 -4 14
-9 32 -10 40 -2 8 -6 21 -9 29 -5 13 -9 30 -22 105 -2 11 -4 20 -5 20 -1 0 -3
14 -6 30 -7 60 -12 90 -13 90 -1 0 -3 25 -5 57 -2 31 -7 61 -10 66 -3 6 -2 13
3 17 6 3 7 15 3 28 -15 43 0 354 23 457 3 14 8 39 11 55 8 39 7 37 29 128 10
42 23 77 27 77 5 0 7 3 5 8 -8 12 141 265 183 310 11 12 18 22 15 22 -4 0 5
15 19 33 35 43 38 46 66 87 13 19 27 37 30 40 3 3 27 32 54 65 81 98 315 326
406 395 47 35 87 67 90 70 9 10 192 126 240 151 25 13 47 26 50 29 5 6 120 63
130 65 3 0 20 9 37 18 18 10 35 18 38 18 2 0 20 6 39 14 20 8 38 15 42 15 3 0
20 7 37 15 41 18 115 44 146 51 13 3 32 9 43 15 10 5 18 7 18 5 0 -3 12 -1 28
5 15 7 36 12 47 13 11 1 25 4 30 8 9 5 27 10 98 23 15 3 37 7 50 10 47 9 83
15 122 20 22 3 49 7 60 9 116 22 543 36 660 22 22 -3 76 -8 120 -11 44 -2 93
-7 109 -10 15 -3 47 -8 70 -10 49 -5 102 -13 136 -21 14 -3 39 -8 55 -11 17
-2 82 -18 145 -34 136 -36 146 -38 185 -26 37 10 63 17 94 23 13 3 31 9 40 13
9 5 18 9 21 9 10 1 66 14 90 22 260 85 423 116 489 95z m-4584 -922 c-3 -26
-18 -69 -33 -96 -27 -50 -87 -111 -101 -103 -7 4 -6 45 2 86 9 49 81 155 98
144 5 -3 9 0 9 5 0 6 7 11 16 11 13 0 15 -8 9 -47z"/>
<path d="M3909 5931 c-1 -3 -2 -79 -3 -168 -1 -99 -5 -166 -12 -173 -6 -6 -21
-13 -34 -15 -33 -6 -134 -48 -141 -58 -3 -5 -9 -8 -13 -8 -20 4 -149 -83 -203
-137 -91 -89 -169 -223 -190 -322 -13 -63 -17 -107 -17 -190 0 -78 5 -111 28
-183 16 -49 35 -95 43 -103 8 -8 11 -14 8 -14 -12 0 57 -83 113 -137 56 -54
152 -123 171 -123 6 0 11 -4 11 -9 0 -5 9 -11 20 -14 11 -3 24 -6 28 -7 4 -1
19 -11 34 -21 14 -10 33 -19 40 -19 8 0 18 -3 22 -7 4 -5 11 -8 14 -9 18 -3
72 -27 73 -32 1 -4 2 -267 3 -584 l1 -578 -23 5 c-12 2 -37 11 -54 19 -17 9
-35 16 -40 16 -8 0 -75 41 -106 65 -47 36 -118 126 -137 173 -9 21 -16 47 -14
47 1 0 -2 9 -8 20 -6 11 -14 47 -17 79 -4 32 -9 62 -11 66 -2 4 -50 7 -106 7
l-101 0 6 -56 c8 -79 34 -184 53 -214 4 -6 8 -14 8 -17 2 -11 38 -76 53 -92 8
-10 13 -18 9 -18 -7 0 39 -54 93 -108 58 -58 141 -114 227 -153 95 -44 104
-47 138 -54 l30 -6 0 -164 0 -165 25 -1 c91 -3 152 -1 158 5 4 4 7 786 7 1736
l0 1729 -92 -1 c-51 0 -94 -3 -94 -7z m-4 -1042 c0 -258 -2 -468 -5 -466 -3 1
-22 9 -42 17 -21 8 -38 18 -38 22 0 4 -7 8 -16 8 -9 0 -36 14 -61 30 -24 17
-47 30 -51 30 -4 0 -35 28 -68 63 -98 99 -135 193 -130 326 5 137 53 224 179
325 50 40 218 129 227 120 3 -3 5 -217 5 -475z"/>
<path d="M4282 5921 c-8 -24 -8 -3438 1 -3447 9 -9 166 -8 175 0 4 4 8 67 9
139 1 73 2 144 2 158 1 18 8 28 21 32 11 3 20 0 20 -6 0 -9 2 -9 8 -1 4 6 30
16 57 23 55 14 227 80 235 91 3 3 21 15 40 26 43 23 170 144 170 162 0 6 4 12
8 12 16 0 98 191 94 217 -1 2 4 17 9 35 13 42 13 263 0 306 -5 18 -10 36 -10
40 -4 32 -49 132 -66 144 -5 4 -6 8 -2 8 4 0 -3 12 -17 27 -14 15 -22 31 -19
37 3 6 3 8 0 5 -4 -3 -29 15 -55 40 -52 49 -90 81 -96 81 -2 0 -35 19 -72 41
-37 23 -126 65 -198 94 l-130 52 -1 564 c0 310 1 570 3 577 2 6 14 10 26 7 37
-8 121 -40 124 -47 2 -5 10 -8 17 -8 8 0 20 -7 29 -15 8 -9 17 -14 20 -13 9 6
107 -86 135 -126 33 -48 59 -119 63 -171 3 -43 9 -45 123 -41 95 3 98 4 92 14
-3 4 -8 23 -11 42 -14 89 -78 250 -98 250 -6 0 -9 3 -5 6 7 8 -3 21 -78 98
-66 67 -100 96 -114 96 -5 0 -11 4 -13 8 -3 8 -142 75 -160 78 -4 1 -10 3 -13
4 -3 1 -9 4 -15 5 -5 1 -11 3 -12 5 -2 1 -11 3 -20 6 -10 2 -26 6 -35 8 -10 3
-19 5 -20 6 -3 3 -18 7 -30 9 -5 0 -8 76 -8 169 l0 167 -88 3 c-79 3 -88 1
-95 -17z m253 -1939 c84 -31 175 -74 175 -83 0 -5 6 -9 13 -9 7 0 33 -18 57
-40 25 -22 49 -40 53 -40 5 0 6 -4 3 -9 -3 -5 1 -11 9 -15 8 -3 15 -12 15 -21
0 -8 4 -15 9 -15 11 0 45 -84 57 -140 10 -48 11 -141 2 -193 -10 -51 -43 -139
-63 -166 -33 -44 -129 -140 -135 -136 -5 3 -10 1 -12 -3 -5 -15 -80 -58 -133
-77 -27 -10 -54 -21 -60 -25 -5 -4 -21 -6 -34 -6 l-25 1 -1 480 c0 264 1 488
3 498 5 21 6 21 67 -1z"/>
</g>
</svg>
